<svg width="292" height="51" viewBox="0 0 292 51" fill="none" xmlns="http://www.w3.org/2000/svg">
<path d="M53.6086 15.5813L28.555 48.7066C18.5965 50.0693 19.1206 40.7397 19.3302 40.7397C19.498 40.7397 38.7581 16.2102 48.0528 4.25998C55.768 -3.45526 65.4889 1.0453 68.8084 4.25998L96.1682 41.0542C97.4261 48.392 91.3461 50.0693 87.1531 47.9727C80.7237 39.6565 66.5861 20.8645 62.7285 15.1619C58.8709 9.45938 55.0412 13.2052 53.6086 15.5813Z" fill="url(#paint0_angular_744_375)"/>
<circle cx="57.592" cy="37.2804" r="7.23304" fill="#089EDE"/>
<rect x="0.671082" y="0.0668945" width="10.902" height="48.6396" rx="5.45099" fill="url(#paint1_linear_744_375)"/>
<path d="M104.454 25.9022C104.206 25.9022 104.082 25.7497 104.082 25.4449V16.0695C104.082 15.7646 104.206 15.6122 104.454 15.6122C104.711 15.6122 104.84 15.7646 104.84 16.0695V25.4449C104.84 25.7497 104.711 25.9022 104.454 25.9022ZM108.169 25.9022C107.921 25.9022 107.797 25.7497 107.797 25.4449V19.4566C107.797 18.2466 108.154 17.3033 108.869 16.6269C109.593 15.9504 110.593 15.6122 111.87 15.6122C113.147 15.6122 114.143 15.9504 114.857 16.6269C115.581 17.3033 115.943 18.2466 115.943 19.4566V25.4449C115.943 25.7497 115.819 25.9022 115.572 25.9022C115.315 25.9022 115.186 25.7497 115.186 25.4449V19.4138C115.186 18.4229 114.895 17.6606 114.314 17.1271C113.742 16.584 112.928 16.3124 111.87 16.3124C110.813 16.3124 109.993 16.584 109.412 17.1271C108.84 17.6606 108.555 18.4229 108.555 19.4138V25.4449C108.555 25.7497 108.426 25.9022 108.169 25.9022ZM122.177 25.9022C121.929 25.9022 121.806 25.7497 121.806 25.4449V16.4268H118.333C118.047 16.4077 117.904 16.2982 117.904 16.0981C117.904 15.9742 117.937 15.8885 118.004 15.8408C118.071 15.7837 118.18 15.7551 118.333 15.7551H126.036C126.188 15.7551 126.298 15.7837 126.365 15.8408C126.431 15.8885 126.465 15.9742 126.465 16.0981C126.465 16.3172 126.322 16.4268 126.036 16.4268H122.563V25.4449C122.563 25.7497 122.434 25.9022 122.177 25.9022ZM130.083 25.7593C129.559 25.7593 129.149 25.6211 128.854 25.3448C128.568 25.0685 128.425 24.6826 128.425 24.1872V17.3272C128.425 16.8317 128.568 16.4458 128.854 16.1695C129.149 15.8932 129.559 15.7551 130.083 15.7551H134.513C134.666 15.7551 134.775 15.7837 134.842 15.8408C134.909 15.8885 134.942 15.9742 134.942 16.0981C134.942 16.3172 134.799 16.4268 134.513 16.4268H129.997C129.75 16.4268 129.549 16.5078 129.397 16.6697C129.254 16.8222 129.183 17.027 129.183 17.2843V20.3141H133.427C133.58 20.3141 133.689 20.3427 133.756 20.3999C133.823 20.4475 133.856 20.5333 133.856 20.6571C133.856 20.8763 133.713 20.9858 133.427 20.9858H129.183V24.2301C129.183 24.4873 129.254 24.6969 129.397 24.8589C129.549 25.0113 129.75 25.0876 129.997 25.0876H134.828C134.98 25.0876 135.09 25.1161 135.157 25.1733C135.223 25.221 135.257 25.3067 135.257 25.4306C135.257 25.6497 135.114 25.7593 134.828 25.7593H130.083ZM139.087 25.7593C138.563 25.7593 138.153 25.6211 137.858 25.3448C137.572 25.0685 137.429 24.6826 137.429 24.1872V16.0695C137.429 15.7646 137.553 15.6122 137.801 15.6122C138.058 15.6122 138.186 15.7646 138.186 16.0695V24.2301C138.186 24.4873 138.258 24.6969 138.401 24.8589C138.553 25.0113 138.753 25.0876 139.001 25.0876H143.832C143.984 25.0876 144.094 25.1161 144.16 25.1733C144.227 25.221 144.26 25.3067 144.26 25.4306C144.26 25.6497 144.117 25.7593 143.832 25.7593H139.087ZM147.092 25.9022C146.844 25.9022 146.72 25.7497 146.72 25.4449V16.0695C146.72 15.7646 146.844 15.6122 147.092 15.6122C147.349 15.6122 147.478 15.7646 147.478 16.0695V25.4449C147.478 25.7497 147.349 25.9022 147.092 25.9022ZM154.98 25.9022C153.998 25.9022 153.136 25.6926 152.393 25.2734C151.659 24.8446 151.088 24.2444 150.678 23.4726C150.278 22.6913 150.078 21.7909 150.078 20.7715C150.078 19.752 150.283 18.8516 150.692 18.0703C151.102 17.289 151.678 16.684 152.422 16.2553C153.165 15.8265 154.022 15.6122 154.994 15.6122C155.794 15.6122 156.528 15.7503 157.195 16.0266C157.862 16.2934 158.391 16.665 158.781 17.1414C158.848 17.2176 158.881 17.3033 158.881 17.3986C158.881 17.513 158.839 17.5987 158.753 17.6559C158.696 17.7035 158.615 17.7273 158.51 17.7273C158.367 17.7273 158.262 17.6797 158.195 17.5844C157.9 17.1842 157.467 16.8746 156.895 16.6554C156.333 16.4268 155.699 16.3124 154.994 16.3124C154.146 16.3124 153.408 16.4935 152.779 16.8555C152.16 17.2081 151.683 17.7226 151.35 18.399C151.016 19.066 150.849 19.8568 150.849 20.7715C150.849 21.6861 151.011 22.4769 151.335 23.1439C151.669 23.8108 152.145 24.3206 152.765 24.6731C153.393 25.0256 154.132 25.2019 154.98 25.2019C155.647 25.2019 156.242 25.0923 156.766 24.8732C157.3 24.6445 157.719 24.3301 158.024 23.9299C158.329 23.5298 158.481 23.082 158.481 22.5865V22.0434C158.481 21.7481 158.424 21.5432 158.31 21.4289C158.195 21.305 157.995 21.2431 157.709 21.2431H155.423C155.137 21.2431 154.994 21.1335 154.994 20.9144C154.994 20.7905 155.027 20.7048 155.094 20.6571C155.161 20.6 155.27 20.5714 155.423 20.5714H157.624C158.167 20.5714 158.572 20.6905 158.839 20.9287C159.105 21.1669 159.239 21.5337 159.239 22.0291V22.5722C159.239 23.182 159.048 23.7441 158.667 24.2586C158.295 24.7636 157.781 25.1638 157.124 25.4592C156.476 25.7545 155.761 25.9022 154.98 25.9022ZM162.993 25.7593C162.469 25.7593 162.059 25.6211 161.764 25.3448C161.478 25.0685 161.335 24.6826 161.335 24.1872V17.3272C161.335 16.8317 161.478 16.4458 161.764 16.1695C162.059 15.8932 162.469 15.7551 162.993 15.7551H167.423C167.576 15.7551 167.686 15.7837 167.752 15.8408C167.819 15.8885 167.852 15.9742 167.852 16.0981C167.852 16.3172 167.709 16.4268 167.423 16.4268H162.907C162.66 16.4268 162.459 16.5078 162.307 16.6697C162.164 16.8222 162.093 17.027 162.093 17.2843V20.3141H166.337C166.49 20.3141 166.599 20.3427 166.666 20.3999C166.733 20.4475 166.766 20.5333 166.766 20.6571C166.766 20.8763 166.623 20.9858 166.337 20.9858H162.093V24.2301C162.093 24.4873 162.164 24.6969 162.307 24.8589C162.459 25.0113 162.66 25.0876 162.907 25.0876H167.738C167.89 25.0876 168 25.1161 168.067 25.1733C168.133 25.221 168.167 25.3067 168.167 25.4306C168.167 25.6497 168.024 25.7593 167.738 25.7593H162.993ZM163.05 14.3831C162.945 14.3068 162.893 14.2163 162.893 14.1115C162.893 14.0067 162.926 13.9162 162.993 13.84L164.508 12.0392C164.613 11.8963 164.732 11.8248 164.865 11.8248C164.989 11.8248 165.108 11.8963 165.223 12.0392L166.737 13.84C166.804 13.9162 166.838 14.0019 166.838 14.0972C166.838 14.202 166.785 14.2925 166.68 14.3688C166.623 14.4164 166.556 14.4402 166.48 14.4402C166.356 14.4402 166.237 14.364 166.123 14.2116L164.865 12.5394L163.608 14.2116C163.474 14.3735 163.35 14.4545 163.236 14.4545C163.179 14.4545 163.117 14.4307 163.05 14.3831ZM170.639 25.9022C170.391 25.9022 170.268 25.7497 170.268 25.4449V19.4566C170.268 18.2466 170.625 17.3033 171.339 16.6269C172.064 15.9504 173.064 15.6122 174.341 15.6122C175.617 15.6122 176.613 15.9504 177.328 16.6269C178.052 17.3033 178.414 18.2466 178.414 19.4566V25.4449C178.414 25.7497 178.29 25.9022 178.042 25.9022C177.785 25.9022 177.656 25.7497 177.656 25.4449V19.4138C177.656 18.4229 177.366 17.6606 176.785 17.1271C176.213 16.584 175.398 16.3124 174.341 16.3124C173.283 16.3124 172.464 16.584 171.883 17.1271C171.311 17.6606 171.025 18.4229 171.025 19.4138V25.4449C171.025 25.7497 170.896 25.9022 170.639 25.9022ZM185.362 25.9022C184.41 25.9022 183.566 25.6878 182.833 25.2591C182.099 24.8303 181.527 24.2301 181.118 23.4583C180.717 22.677 180.517 21.7814 180.517 20.7715C180.517 19.752 180.717 18.8516 181.118 18.0703C181.527 17.289 182.099 16.684 182.833 16.2553C183.566 15.8265 184.41 15.6122 185.362 15.6122C186.163 15.6122 186.896 15.7503 187.563 16.0266C188.23 16.2934 188.759 16.665 189.15 17.1414C189.216 17.2176 189.25 17.3033 189.25 17.3986C189.25 17.513 189.207 17.5987 189.121 17.6559C189.064 17.7035 188.983 17.7273 188.878 17.7273C188.735 17.7273 188.63 17.6797 188.564 17.5844C188.268 17.1842 187.835 16.8746 187.263 16.6554C186.701 16.4268 186.067 16.3124 185.362 16.3124C184.533 16.3124 183.809 16.4935 183.19 16.8555C182.58 17.2176 182.109 17.7369 181.775 18.4133C181.451 19.0803 181.289 19.8663 181.289 20.7715C181.289 21.6766 181.451 22.4627 181.775 23.1296C182.109 23.7965 182.58 24.311 183.19 24.6731C183.809 25.0256 184.533 25.2019 185.362 25.2019C186.125 25.2019 186.796 25.0923 187.377 24.8732C187.968 24.6541 188.411 24.3396 188.707 23.9299C188.783 23.8251 188.892 23.7727 189.035 23.7727C189.111 23.7727 189.188 23.8013 189.264 23.8585C189.35 23.9252 189.393 24.0157 189.393 24.13C189.393 24.2062 189.359 24.2872 189.293 24.373C188.911 24.8398 188.368 25.2114 187.663 25.4877C186.958 25.764 186.191 25.9022 185.362 25.9022ZM192.368 25.9022C192.12 25.9022 191.996 25.7497 191.996 25.4449V16.0695C191.996 15.7646 192.12 15.6122 192.368 15.6122C192.625 15.6122 192.753 15.7646 192.753 16.0695V25.4449C192.753 25.7497 192.625 25.9022 192.368 25.9022ZM196.082 25.9022C195.835 25.9022 195.711 25.7497 195.711 25.4449V19.6281C195.711 18.3609 196.063 17.3748 196.768 16.6697C197.473 15.9647 198.45 15.6122 199.698 15.6122C200.946 15.6122 201.923 15.9694 202.628 16.684C203.333 17.3891 203.686 18.3705 203.686 19.6281V25.4449C203.686 25.7497 203.562 25.9022 203.314 25.9022C203.057 25.9022 202.928 25.7497 202.928 25.4449V21.9005H196.468V25.4449C196.468 25.7497 196.34 25.9022 196.082 25.9022ZM202.928 21.2288V19.5853C202.928 18.5372 202.647 17.7321 202.085 17.1699C201.532 16.5983 200.737 16.3124 199.698 16.3124C198.66 16.3124 197.859 16.5983 197.297 17.1699C196.744 17.7321 196.468 18.5372 196.468 19.5853V21.2288H202.928ZM210.346 25.9022C210.098 25.9022 209.975 25.7497 209.975 25.4449V19.6281C209.975 18.3609 210.327 17.3748 211.032 16.6697C211.737 15.9647 212.714 15.6122 213.962 15.6122C215.21 15.6122 216.187 15.9694 216.892 16.684C217.597 17.3891 217.949 18.3705 217.949 19.6281V25.4449C217.949 25.7497 217.825 25.9022 217.578 25.9022C217.32 25.9022 217.192 25.7497 217.192 25.4449V21.9005H210.732V25.4449C210.732 25.7497 210.603 25.9022 210.346 25.9022ZM217.192 21.2288V19.5853C217.192 18.5372 216.911 17.7321 216.349 17.1699C215.796 16.5983 215 16.3124 213.962 16.3124C212.923 16.3124 212.123 16.5983 211.561 17.1699C211.008 17.7321 210.732 18.5372 210.732 19.5853V21.2288H217.192ZM220.414 17.3272C220.414 16.8698 220.552 16.4935 220.829 16.1981C221.105 15.9027 221.519 15.7551 222.072 15.7551H224.53C225.874 15.7551 226.86 16.0266 227.489 16.5697C228.127 17.1033 228.446 17.8893 228.446 18.9278C228.446 19.9092 228.108 20.6524 227.431 21.1573C226.755 21.6623 225.745 21.9148 224.402 21.9148L227.503 25.2734C227.608 25.3782 227.66 25.483 227.66 25.5878C227.66 25.6735 227.622 25.7497 227.546 25.8164C227.479 25.8736 227.408 25.9022 227.331 25.9022C227.217 25.9022 227.088 25.826 226.946 25.6735L223.473 21.9148H221.172V25.4449C221.172 25.7497 221.043 25.9022 220.786 25.9022C220.538 25.9022 220.414 25.7497 220.414 25.4449V17.3272ZM224.573 21.2431C225.469 21.2431 226.207 21.0716 226.788 20.7286C227.379 20.3856 227.674 19.7853 227.674 18.9278C227.674 18.0132 227.412 17.37 226.888 16.9984C226.374 16.6173 225.612 16.4268 224.602 16.4268H221.986C221.739 16.4268 221.538 16.5078 221.386 16.6697C221.243 16.8222 221.172 17.027 221.172 17.2843V21.2431H224.573ZM234.32 25.9022C234.072 25.9022 233.948 25.7497 233.948 25.4449V16.4268H230.475C230.19 16.4077 230.047 16.2982 230.047 16.0981C230.047 15.9742 230.08 15.8885 230.147 15.8408C230.213 15.7837 230.323 15.7551 230.475 15.7551H238.179C238.331 15.7551 238.441 15.7837 238.507 15.8408C238.574 15.8885 238.607 15.9742 238.607 16.0981C238.607 16.3172 238.464 16.4268 238.179 16.4268H234.706V25.4449C234.706 25.7497 234.577 25.9022 234.32 25.9022ZM241.44 25.9022C241.192 25.9022 241.068 25.7497 241.068 25.4449V16.0695C241.068 15.7646 241.192 15.6122 241.44 15.6122C241.697 15.6122 241.825 15.7646 241.825 16.0695V25.4449C241.825 25.7497 241.697 25.9022 241.44 25.9022ZM245.154 25.9022C244.907 25.9022 244.783 25.7497 244.783 25.4449V17.3272C244.783 16.8317 244.926 16.4458 245.211 16.1695C245.507 15.8932 245.917 15.7551 246.441 15.7551H250.871C251.023 15.7551 251.133 15.7837 251.2 15.8408C251.266 15.8885 251.3 15.9742 251.3 16.0981C251.3 16.3172 251.157 16.4268 250.871 16.4268H246.355C246.107 16.4268 245.907 16.5078 245.755 16.6697C245.612 16.8222 245.54 17.027 245.54 17.2843V20.457H249.785C249.937 20.457 250.047 20.4856 250.114 20.5428C250.18 20.5904 250.214 20.6762 250.214 20.8C250.214 21.0192 250.071 21.1288 249.785 21.1288H245.54V25.4449C245.54 25.7497 245.412 25.9022 245.154 25.9022ZM254.266 25.9022C254.018 25.9022 253.894 25.7497 253.894 25.4449V16.0695C253.894 15.7646 254.018 15.6122 254.266 15.6122C254.523 15.6122 254.652 15.7646 254.652 16.0695V25.4449C254.652 25.7497 254.523 25.9022 254.266 25.9022ZM262.097 25.9022C261.144 25.9022 260.301 25.6878 259.567 25.2591C258.833 24.8303 258.262 24.2301 257.852 23.4583C257.452 22.677 257.252 21.7814 257.252 20.7715C257.252 19.752 257.452 18.8516 257.852 18.0703C258.262 17.289 258.833 16.684 259.567 16.2553C260.301 15.8265 261.144 15.6122 262.097 15.6122C262.897 15.6122 263.631 15.7503 264.297 16.0266C264.964 16.2934 265.493 16.665 265.884 17.1414C265.951 17.2176 265.984 17.3033 265.984 17.3986C265.984 17.513 265.941 17.5987 265.855 17.6559C265.798 17.7035 265.717 17.7273 265.612 17.7273C265.469 17.7273 265.365 17.6797 265.298 17.5844C265.003 17.1842 264.569 16.8746 263.997 16.6554C263.435 16.4268 262.802 16.3124 262.097 16.3124C261.268 16.3124 260.544 16.4935 259.924 16.8555C259.314 17.2176 258.843 17.7369 258.509 18.4133C258.185 19.0803 258.023 19.8663 258.023 20.7715C258.023 21.6766 258.185 22.4627 258.509 23.1296C258.843 23.7965 259.314 24.311 259.924 24.6731C260.544 25.0256 261.268 25.2019 262.097 25.2019C262.859 25.2019 263.531 25.0923 264.112 24.8732C264.702 24.6541 265.145 24.3396 265.441 23.9299C265.517 23.8251 265.627 23.7727 265.77 23.7727C265.846 23.7727 265.922 23.8013 265.998 23.8585C266.084 23.9252 266.127 24.0157 266.127 24.13C266.127 24.2062 266.093 24.2872 266.027 24.373C265.646 24.8398 265.103 25.2114 264.398 25.4877C263.692 25.764 262.925 25.9022 262.097 25.9022ZM269.102 25.9022C268.854 25.9022 268.73 25.7497 268.73 25.4449V16.0695C268.73 15.7646 268.854 15.6122 269.102 15.6122C269.359 15.6122 269.488 15.7646 269.488 16.0695V25.4449C269.488 25.7497 269.359 25.9022 269.102 25.9022ZM272.817 25.9022C272.569 25.9022 272.445 25.7497 272.445 25.4449V19.6281C272.445 18.3609 272.798 17.3748 273.503 16.6697C274.208 15.9647 275.184 15.6122 276.432 15.6122C277.681 15.6122 278.657 15.9694 279.362 16.684C280.067 17.3891 280.42 18.3705 280.42 19.6281V25.4449C280.42 25.7497 280.296 25.9022 280.048 25.9022C279.791 25.9022 279.662 25.7497 279.662 25.4449V21.9005H273.202V25.4449C273.202 25.7497 273.074 25.9022 272.817 25.9022ZM279.662 21.2288V19.5853C279.662 18.5372 279.381 17.7321 278.819 17.1699C278.267 16.5983 277.471 16.3124 276.432 16.3124C275.394 16.3124 274.594 16.5983 274.031 17.1699C273.479 17.7321 273.202 18.5372 273.202 19.5853V21.2288H279.662ZM284.614 25.7593C284.09 25.7593 283.68 25.6211 283.385 25.3448C283.099 25.0685 282.956 24.6826 282.956 24.1872V16.0695C282.956 15.7646 283.08 15.6122 283.328 15.6122C283.585 15.6122 283.714 15.7646 283.714 16.0695V24.2301C283.714 24.4873 283.785 24.6969 283.928 24.8589C284.08 25.0113 284.28 25.0876 284.528 25.0876H289.359C289.511 25.0876 289.621 25.1161 289.688 25.1733C289.754 25.221 289.788 25.3067 289.788 25.4306C289.788 25.6497 289.645 25.7593 289.359 25.7593H284.614Z" fill="#F9F9F9"/>
<path d="M103.326 7.55249C103.211 7.55249 103.154 7.48192 103.154 7.34077V3.00045C103.154 2.85931 103.211 2.78873 103.326 2.78873C103.445 2.78873 103.504 2.85931 103.504 3.00045V7.34077C103.504 7.48192 103.445 7.55249 103.326 7.55249ZM108.565 7.27461C108.596 7.30989 108.612 7.3518 108.612 7.40032C108.612 7.44884 108.594 7.48633 108.559 7.51279C108.528 7.53926 108.495 7.55249 108.459 7.55249C108.402 7.55249 108.347 7.51941 108.294 7.45325L106.66 5.38233L105.026 7.44663C104.973 7.51279 104.917 7.54588 104.86 7.54588C104.82 7.54588 104.787 7.53485 104.761 7.51279C104.726 7.48633 104.708 7.44884 104.708 7.40032C104.708 7.3518 104.723 7.30989 104.754 7.27461L106.455 5.1243L104.827 3.06662C104.796 3.03133 104.781 2.98943 104.781 2.94091C104.781 2.89239 104.798 2.85489 104.834 2.82843C104.86 2.80637 104.893 2.79535 104.933 2.79535C104.99 2.79535 105.045 2.82843 105.098 2.89459L106.66 4.86626L108.221 2.89459C108.274 2.82843 108.329 2.79535 108.387 2.79535C108.426 2.79535 108.459 2.80637 108.486 2.82843C108.521 2.85489 108.539 2.89239 108.539 2.94091C108.539 2.98943 108.523 3.03133 108.492 3.06662L106.865 5.1243L108.565 7.27461ZM111.526 7.55249C111.411 7.55249 111.354 7.48192 111.354 7.34077V3.58269C111.354 3.35333 111.42 3.17468 111.552 3.04677C111.689 2.91885 111.879 2.85489 112.121 2.85489H114.173C114.243 2.85489 114.294 2.86813 114.325 2.89459C114.356 2.91665 114.371 2.95635 114.371 3.01369C114.371 3.11514 114.305 3.16586 114.173 3.16586H112.082C111.967 3.16586 111.874 3.20335 111.804 3.27834C111.738 3.34891 111.705 3.44375 111.705 3.56284V5.03167H113.67C113.74 5.03167 113.791 5.0449 113.822 5.07137C113.853 5.09342 113.868 5.13312 113.868 5.19046C113.868 5.29191 113.802 5.34264 113.67 5.34264H111.705V7.34077C111.705 7.48192 111.645 7.55249 111.526 7.55249ZM117.051 7.55249C116.632 7.55249 116.246 7.45545 115.894 7.26137C115.545 7.06729 115.265 6.78941 115.053 6.42771C114.846 6.06602 114.742 5.64699 114.742 5.17061C114.742 4.69424 114.846 4.2752 115.053 3.91351C115.265 3.55182 115.545 3.27393 115.894 3.07985C116.246 2.88577 116.632 2.78873 117.051 2.78873C117.47 2.78873 117.854 2.88577 118.203 3.07985C118.555 3.27393 118.836 3.55182 119.043 3.91351C119.255 4.2752 119.36 4.69424 119.36 5.17061C119.36 5.64699 119.255 6.06602 119.043 6.42771C118.836 6.78941 118.555 7.06729 118.203 7.26137C117.854 7.45545 117.47 7.55249 117.051 7.55249ZM117.051 7.22829C117.417 7.22829 117.748 7.1489 118.044 6.9901C118.339 6.83131 118.573 6.59753 118.745 6.28877C118.922 5.9756 119.01 5.60288 119.01 5.17061C119.01 4.73834 118.922 4.36783 118.745 4.05907C118.573 3.74589 118.339 3.50991 118.044 3.35112C117.748 3.19233 117.417 3.11293 117.051 3.11293C116.685 3.11293 116.354 3.19233 116.059 3.35112C115.763 3.50991 115.527 3.74589 115.351 4.05907C115.179 4.36783 115.093 4.73834 115.093 5.17061C115.093 5.60288 115.179 5.9756 115.351 6.28877C115.527 6.59753 115.763 6.83131 116.059 6.9901C116.354 7.1489 116.685 7.22829 117.051 7.22829ZM120.335 3.58269C120.335 3.37097 120.399 3.19674 120.527 3.06C120.655 2.92326 120.847 2.85489 121.103 2.85489H122.241C122.863 2.85489 123.319 2.98061 123.61 3.23203C123.906 3.47904 124.054 3.84293 124.054 4.32372C124.054 4.77804 123.897 5.12209 123.584 5.35587C123.271 5.58965 122.803 5.70653 122.181 5.70653L123.617 7.26137C123.665 7.30989 123.69 7.35841 123.69 7.40693C123.69 7.44663 123.672 7.48192 123.637 7.51279C123.606 7.53926 123.573 7.55249 123.537 7.55249C123.485 7.55249 123.425 7.5172 123.359 7.44663L121.751 5.70653H120.686V7.34077C120.686 7.48192 120.626 7.55249 120.507 7.55249C120.392 7.55249 120.335 7.48192 120.335 7.34077V3.58269ZM122.26 5.39557C122.675 5.39557 123.017 5.31617 123.286 5.15738C123.559 4.99859 123.696 4.7207 123.696 4.32372C123.696 3.90028 123.575 3.60254 123.332 3.43052C123.094 3.25408 122.741 3.16586 122.274 3.16586H121.063C120.948 3.16586 120.856 3.20335 120.785 3.27834C120.719 3.34891 120.686 3.44375 120.686 3.56284V5.39557H122.26ZM126.892 7.55249C126.31 7.55249 125.853 7.38708 125.522 7.05627C125.191 6.72104 125.026 6.2579 125.026 5.66684V3.00045C125.026 2.85931 125.083 2.78873 125.198 2.78873C125.317 2.78873 125.377 2.85931 125.377 3.00045V5.68669C125.377 6.1807 125.509 6.56225 125.774 6.83131C126.043 7.09596 126.424 7.22829 126.918 7.22829C127.403 7.22829 127.781 7.09376 128.05 6.82469C128.323 6.55122 128.46 6.17188 128.46 5.68669V3.00045C128.46 2.85931 128.519 2.78873 128.639 2.78873C128.753 2.78873 128.811 2.85931 128.811 3.00045V5.66684C128.811 6.05058 128.733 6.38361 128.579 6.6659C128.425 6.9482 128.202 7.16654 127.911 7.32092C127.624 7.4753 127.284 7.55249 126.892 7.55249ZM126.846 2.23296C126.801 2.21532 126.779 2.18223 126.779 2.13371C126.779 2.10725 126.786 2.08078 126.799 2.05432L127.223 1.13465C127.271 1.02879 127.326 0.975856 127.388 0.975856C127.419 0.975856 127.45 0.984678 127.481 1.00232C127.547 1.0332 127.58 1.0751 127.58 1.12803C127.58 1.15891 127.567 1.19861 127.54 1.24713L127.031 2.15356C126.995 2.21532 126.951 2.24619 126.898 2.24619L126.846 2.23296ZM130.122 7.55249C130.007 7.55249 129.949 7.48192 129.949 7.34077V4.24432C129.949 3.79 130.075 3.43493 130.327 3.1791C130.582 2.91885 130.933 2.78873 131.379 2.78873C131.657 2.78873 131.91 2.86151 132.14 3.00707C132.373 3.15263 132.536 3.3423 132.629 3.57608C132.726 3.33789 132.887 3.14822 133.112 3.00707C133.341 2.86151 133.6 2.78873 133.886 2.78873C134.332 2.78873 134.68 2.91885 134.932 3.1791C135.187 3.43493 135.315 3.79 135.315 4.24432V7.34077C135.315 7.48192 135.256 7.55249 135.137 7.55249C135.022 7.55249 134.965 7.48192 134.965 7.34077V4.24432C134.965 3.86499 134.876 3.58269 134.7 3.39743C134.524 3.21218 134.252 3.11955 133.886 3.11955C133.551 3.11955 133.286 3.221 133.092 3.4239C132.898 3.62239 132.801 3.89586 132.801 4.24432V7.34077C132.801 7.48192 132.744 7.55249 132.629 7.55249C132.519 7.55249 132.464 7.48192 132.464 7.34077V4.24432C132.464 3.90469 132.364 3.63342 132.166 3.43052C131.967 3.2232 131.705 3.11955 131.379 3.11955C131.013 3.11955 130.741 3.21218 130.565 3.39743C130.388 3.58269 130.3 3.86499 130.3 4.24432V7.34077C130.3 7.48192 130.241 7.55249 130.122 7.55249ZM138.994 7.48633C138.751 7.48633 138.562 7.42237 138.425 7.29445C138.293 7.16654 138.226 6.9879 138.226 6.75853V3.58269C138.226 3.35333 138.293 3.17468 138.425 3.04677C138.562 2.91885 138.751 2.85489 138.994 2.85489H139.927C140.363 2.85489 140.747 2.95193 141.078 3.14601C141.413 3.33568 141.671 3.60695 141.852 3.95982C142.033 4.30828 142.123 4.71408 142.123 5.17723C142.123 5.64037 142.033 6.04617 141.852 6.39463C141.671 6.74309 141.415 7.01216 141.085 7.20183C140.754 7.39149 140.368 7.48633 139.927 7.48633H138.994ZM139.861 7.17536C140.456 7.17536 140.921 6.99892 141.257 6.64605C141.596 6.29318 141.766 5.80357 141.766 5.17723C141.766 4.7626 141.689 4.40532 141.535 4.10538C141.385 3.80103 141.166 3.56946 140.88 3.41067C140.593 3.24746 140.253 3.16586 139.861 3.16586H138.954C138.839 3.16586 138.747 3.20335 138.676 3.27834C138.61 3.34891 138.577 3.44375 138.577 3.56284V6.77838C138.577 6.89747 138.61 6.99451 138.676 7.0695C138.747 7.14007 138.839 7.17536 138.954 7.17536H139.861ZM143.866 7.48633C143.623 7.48633 143.433 7.42237 143.297 7.29445C143.164 7.16654 143.098 6.9879 143.098 6.75853V3.58269C143.098 3.35333 143.164 3.17468 143.297 3.04677C143.433 2.91885 143.623 2.85489 143.866 2.85489H145.917C145.987 2.85489 146.038 2.86813 146.069 2.89459C146.1 2.91665 146.115 2.95635 146.115 3.01369C146.115 3.11514 146.049 3.16586 145.917 3.16586H143.826C143.711 3.16586 143.619 3.20335 143.548 3.27834C143.482 3.34891 143.449 3.44375 143.449 3.56284V4.96551H145.414C145.484 4.96551 145.535 4.97874 145.566 5.0052C145.597 5.02726 145.612 5.06696 145.612 5.1243C145.612 5.22575 145.546 5.27647 145.414 5.27647H143.449V6.77838C143.449 6.89747 143.482 6.99451 143.548 7.0695C143.619 7.14007 143.711 7.17536 143.826 7.17536H146.062C146.133 7.17536 146.184 7.18859 146.214 7.21506C146.245 7.23711 146.261 7.27681 146.261 7.33415C146.261 7.4356 146.195 7.48633 146.062 7.48633H143.866ZM150.75 7.55249C150.636 7.55249 150.578 7.48192 150.578 7.34077V3.16586H148.971C148.838 3.15704 148.772 3.10632 148.772 3.01369C148.772 2.95635 148.788 2.91665 148.819 2.89459C148.849 2.86813 148.9 2.85489 148.971 2.85489H152.537C152.607 2.85489 152.658 2.86813 152.689 2.89459C152.72 2.91665 152.735 2.95635 152.735 3.01369C152.735 3.11514 152.669 3.16586 152.537 3.16586H150.929V7.34077C150.929 7.48192 150.87 7.55249 150.75 7.55249ZM154.41 7.48633C154.168 7.48633 153.978 7.42237 153.841 7.29445C153.709 7.16654 153.643 6.9879 153.643 6.75853V3.58269C153.643 3.35333 153.709 3.17468 153.841 3.04677C153.978 2.91885 154.168 2.85489 154.41 2.85489H156.462C156.532 2.85489 156.583 2.86813 156.614 2.89459C156.645 2.91665 156.66 2.95635 156.66 3.01369C156.66 3.11514 156.594 3.16586 156.462 3.16586H154.371C154.256 3.16586 154.163 3.20335 154.093 3.27834C154.027 3.34891 153.994 3.44375 153.994 3.56284V4.96551H155.959C156.029 4.96551 156.08 4.97874 156.111 5.0052C156.142 5.02726 156.157 5.06696 156.157 5.1243C156.157 5.22575 156.091 5.27647 155.959 5.27647H153.994V6.77838C153.994 6.89747 154.027 6.99451 154.093 7.0695C154.163 7.14007 154.256 7.17536 154.371 7.17536H156.607C156.678 7.17536 156.728 7.18859 156.759 7.21506C156.79 7.23711 156.806 7.27681 156.806 7.33415C156.806 7.4356 156.739 7.48633 156.607 7.48633H154.41ZM159.558 7.55249C159.117 7.55249 158.727 7.45325 158.387 7.25476C158.048 7.05627 157.783 6.77838 157.593 6.4211C157.408 6.05941 157.316 5.64478 157.316 5.17723C157.316 4.70526 157.408 4.28843 157.593 3.92674C157.783 3.56505 158.048 3.28496 158.387 3.08647C158.727 2.88798 159.117 2.78873 159.558 2.78873C159.929 2.78873 160.269 2.85269 160.577 2.9806C160.886 3.10411 161.131 3.27613 161.312 3.49668C161.343 3.53197 161.358 3.57166 161.358 3.61577C161.358 3.6687 161.338 3.7084 161.299 3.73487C161.272 3.75692 161.235 3.76795 161.186 3.76795C161.12 3.76795 161.071 3.74589 161.041 3.70179C160.904 3.51653 160.703 3.37317 160.438 3.27172C160.178 3.16586 159.885 3.11293 159.558 3.11293C159.175 3.11293 158.839 3.19674 158.553 3.36435C158.27 3.53197 158.052 3.77236 157.898 4.08553C157.748 4.3943 157.673 4.75819 157.673 5.17723C157.673 5.59626 157.748 5.96016 157.898 6.26892C158.052 6.57768 158.27 6.81587 158.553 6.98349C158.839 7.14669 159.175 7.22829 159.558 7.22829C159.911 7.22829 160.222 7.17757 160.491 7.07612C160.765 6.97467 160.97 6.82911 161.107 6.63944C161.142 6.59092 161.193 6.56666 161.259 6.56666C161.294 6.56666 161.329 6.57989 161.365 6.60636C161.404 6.63723 161.424 6.67914 161.424 6.73207C161.424 6.76735 161.409 6.80485 161.378 6.84454C161.202 7.06068 160.95 7.2327 160.624 7.36062C160.297 7.48853 159.942 7.55249 159.558 7.55249ZM162.57 7.55249C162.455 7.55249 162.398 7.48192 162.398 7.34077V4.56853C162.398 4.00834 162.563 3.57166 162.894 3.25849C163.229 2.94532 163.693 2.78873 164.284 2.78873C164.875 2.78873 165.336 2.94532 165.666 3.25849C166.002 3.57166 166.169 4.00834 166.169 4.56853V7.34077C166.169 7.48192 166.112 7.55249 165.997 7.55249C165.878 7.55249 165.819 7.48192 165.819 7.34077V4.54868C165.819 4.08994 165.684 3.73707 165.415 3.49006C165.15 3.23864 164.773 3.11293 164.284 3.11293C163.794 3.11293 163.415 3.23864 163.146 3.49006C162.881 3.73707 162.749 4.08994 162.749 4.54868V7.34077C162.749 7.48192 162.689 7.55249 162.57 7.55249ZM169.284 7.55249C168.865 7.55249 168.479 7.45545 168.126 7.26137C167.778 7.06729 167.498 6.78941 167.286 6.42771C167.079 6.06602 166.975 5.64699 166.975 5.17061C166.975 4.69424 167.079 4.2752 167.286 3.91351C167.498 3.55182 167.778 3.27393 168.126 3.07985C168.479 2.88577 168.865 2.78873 169.284 2.78873C169.703 2.78873 170.087 2.88577 170.435 3.07985C170.788 3.27393 171.068 3.55182 171.276 3.91351C171.487 4.2752 171.593 4.69424 171.593 5.17061C171.593 5.64699 171.487 6.06602 171.276 6.42771C171.068 6.78941 170.788 7.06729 170.435 7.26137C170.087 7.45545 169.703 7.55249 169.284 7.55249ZM169.284 7.22829C169.65 7.22829 169.981 7.1489 170.277 6.9901C170.572 6.83131 170.806 6.59753 170.978 6.28877C171.154 5.9756 171.243 5.60288 171.243 5.17061C171.243 4.73834 171.154 4.36783 170.978 4.05907C170.806 3.74589 170.572 3.50991 170.277 3.35112C169.981 3.19233 169.65 3.11293 169.284 3.11293C168.918 3.11293 168.587 3.19233 168.292 3.35112C167.996 3.50991 167.76 3.74589 167.584 4.05907C167.412 4.36783 167.326 4.73834 167.326 5.17061C167.326 5.60288 167.412 5.9756 167.584 6.28877C167.76 6.59753 167.996 6.83131 168.292 6.9901C168.587 7.1489 168.918 7.22829 169.284 7.22829ZM173.369 7.48633C173.126 7.48633 172.936 7.42237 172.8 7.29445C172.667 7.16654 172.601 6.9879 172.601 6.75853V3.00045C172.601 2.85931 172.658 2.78873 172.773 2.78873C172.892 2.78873 172.952 2.85931 172.952 3.00045V6.77838C172.952 6.89747 172.985 6.99451 173.051 7.0695C173.122 7.14007 173.214 7.17536 173.329 7.17536H175.565C175.636 7.17536 175.686 7.18859 175.717 7.21506C175.748 7.23711 175.764 7.27681 175.764 7.33415C175.764 7.4356 175.698 7.48633 175.565 7.48633H173.369ZM178.317 7.55249C177.898 7.55249 177.512 7.45545 177.159 7.26137C176.811 7.06729 176.531 6.78941 176.319 6.42771C176.112 6.06602 176.008 5.64699 176.008 5.17061C176.008 4.69424 176.112 4.2752 176.319 3.91351C176.531 3.55182 176.811 3.27393 177.159 3.07985C177.512 2.88577 177.898 2.78873 178.317 2.78873C178.736 2.78873 179.12 2.88577 179.468 3.07985C179.821 3.27393 180.101 3.55182 180.309 3.91351C180.52 4.2752 180.626 4.69424 180.626 5.17061C180.626 5.64699 180.52 6.06602 180.309 6.42771C180.101 6.78941 179.821 7.06729 179.468 7.26137C179.12 7.45545 178.736 7.55249 178.317 7.55249ZM178.317 7.22829C178.683 7.22829 179.014 7.1489 179.31 6.9901C179.605 6.83131 179.839 6.59753 180.011 6.28877C180.187 5.9756 180.275 5.60288 180.275 5.17061C180.275 4.73834 180.187 4.36783 180.011 4.05907C179.839 3.74589 179.605 3.50991 179.31 3.35112C179.014 3.19233 178.683 3.11293 178.317 3.11293C177.951 3.11293 177.62 3.19233 177.325 3.35112C177.029 3.50991 176.793 3.74589 176.617 4.05907C176.445 4.36783 176.359 4.73834 176.359 5.17061C176.359 5.60288 176.445 5.9756 176.617 6.28877C176.793 6.59753 177.029 6.83131 177.325 6.9901C177.62 7.1489 177.951 7.22829 178.317 7.22829ZM183.705 7.55249C183.25 7.55249 182.851 7.45545 182.507 7.26137C182.168 7.06288 181.903 6.785 181.713 6.42771C181.528 6.06602 181.435 5.64919 181.435 5.17723C181.435 4.70526 181.53 4.28843 181.72 3.92674C181.91 3.56505 182.176 3.28496 182.52 3.08647C182.865 2.88798 183.262 2.78873 183.711 2.78873C184.082 2.78873 184.422 2.85269 184.73 2.9806C185.039 3.10411 185.284 3.27613 185.465 3.49668C185.496 3.53197 185.511 3.57166 185.511 3.61577C185.511 3.6687 185.491 3.7084 185.452 3.73487C185.425 3.75692 185.388 3.76795 185.339 3.76795C185.273 3.76795 185.224 3.74589 185.193 3.70179C185.057 3.51653 184.856 3.37317 184.591 3.27172C184.331 3.16586 184.038 3.11293 183.711 3.11293C183.319 3.11293 182.977 3.19674 182.686 3.36435C182.399 3.52756 182.179 3.76574 182.024 4.07892C181.87 4.38768 181.793 4.75378 181.793 5.17723C181.793 5.60067 181.868 5.96678 182.018 6.27554C182.172 6.5843 182.393 6.82028 182.679 6.98349C182.97 7.14669 183.312 7.22829 183.705 7.22829C184.014 7.22829 184.289 7.17757 184.532 7.07612C184.779 6.97025 184.973 6.82469 185.114 6.63944C185.255 6.45418 185.326 6.24687 185.326 6.0175V5.76608C185.326 5.62934 185.299 5.53451 185.246 5.48158C185.193 5.42424 185.101 5.39557 184.969 5.39557H183.91C183.778 5.39557 183.711 5.34484 183.711 5.24339C183.711 5.18605 183.727 5.14635 183.758 5.1243C183.789 5.09783 183.839 5.0846 183.91 5.0846H184.929C185.18 5.0846 185.368 5.13974 185.491 5.25001C185.615 5.36028 185.676 5.5301 185.676 5.75947V6.01089C185.676 6.29318 185.588 6.55343 185.412 6.79161C185.24 7.02539 185.002 7.21065 184.697 7.34739C184.397 7.48412 184.067 7.55249 183.705 7.55249ZM187.051 7.55249C186.936 7.55249 186.879 7.48192 186.879 7.34077V3.00045C186.879 2.85931 186.936 2.78873 187.051 2.78873C187.17 2.78873 187.229 2.85931 187.229 3.00045V7.34077C187.229 7.48192 187.17 7.55249 187.051 7.55249ZM188.77 7.55249C188.656 7.55249 188.598 7.48192 188.598 7.34077V4.64792C188.598 4.06127 188.762 3.60475 189.088 3.27834C189.414 2.95193 189.867 2.78873 190.444 2.78873C191.022 2.78873 191.474 2.95414 191.801 3.28496C192.127 3.61136 192.29 4.06568 192.29 4.64792V7.34077C192.29 7.48192 192.233 7.55249 192.118 7.55249C191.999 7.55249 191.94 7.48192 191.94 7.34077V5.69992H188.949V7.34077C188.949 7.48192 188.889 7.55249 188.77 7.55249ZM191.94 5.38895V4.62807C191.94 4.14287 191.81 3.77015 191.549 3.50991C191.293 3.24526 190.925 3.11293 190.444 3.11293C189.964 3.11293 189.593 3.24526 189.333 3.50991C189.077 3.77015 188.949 4.14287 188.949 4.62807V5.38895H191.94Z" fill="#F9F9F9"/>
<path d="M108.213 46.2386C107.307 46.2386 106.474 46.029 105.712 45.6098C104.959 45.1906 104.354 44.5903 103.897 43.809C103.449 43.0277 103.225 42.1226 103.225 41.0936C103.225 40.0646 103.449 39.1595 103.897 38.3782C104.354 37.5969 104.959 36.9966 105.712 36.5774C106.474 36.1582 107.307 35.9486 108.213 35.9486C109.118 35.9486 109.947 36.1582 110.699 36.5774C111.462 36.9966 112.067 37.5969 112.514 38.3782C112.972 39.1595 113.2 40.0646 113.2 41.0936C113.2 42.1226 112.972 43.0277 112.514 43.809C112.067 44.5903 111.462 45.1906 110.699 45.6098C109.947 46.029 109.118 46.2386 108.213 46.2386ZM108.213 45.5383C109.003 45.5383 109.718 45.3668 110.356 45.0238C110.995 44.6808 111.5 44.1758 111.871 43.5089C112.252 42.8324 112.443 42.0273 112.443 41.0936C112.443 40.1599 112.252 39.3595 111.871 38.6926C111.5 38.0161 110.995 37.5064 110.356 37.1634C109.718 36.8204 109.003 36.6489 108.213 36.6489C107.422 36.6489 106.707 36.8204 106.069 37.1634C105.431 37.5064 104.921 38.0161 104.54 38.6926C104.168 39.3595 103.982 40.1599 103.982 41.0936C103.982 42.0273 104.168 42.8324 104.54 43.5089C104.921 44.1758 105.431 44.6808 106.069 45.0238C106.707 45.3668 107.422 45.5383 108.213 45.5383ZM119.502 46.2386C119.254 46.2386 119.13 46.0862 119.13 45.7813V37.6636C119.13 37.1681 119.273 36.7823 119.559 36.506C119.854 36.2296 120.264 36.0915 120.788 36.0915H125.218C125.371 36.0915 125.48 36.1201 125.547 36.1772C125.614 36.2249 125.647 36.3106 125.647 36.4345C125.647 36.6536 125.504 36.7632 125.218 36.7632H120.702C120.454 36.7632 120.254 36.8442 120.102 37.0062C119.959 37.1586 119.887 37.3635 119.887 37.6207V40.7935H124.132C124.285 40.7935 124.394 40.8221 124.461 40.8792C124.527 40.9269 124.561 41.0126 124.561 41.1365C124.561 41.3556 124.418 41.4652 124.132 41.4652H119.887V45.7813C119.887 46.0862 119.759 46.2386 119.502 46.2386ZM131.772 46.2386C130.514 46.2386 129.528 45.8813 128.813 45.1667C128.099 44.4426 127.741 43.4422 127.741 42.1655V36.4059C127.741 36.101 127.865 35.9486 128.113 35.9486C128.37 35.9486 128.499 36.101 128.499 36.4059V42.2084C128.499 43.2755 128.785 44.0996 129.356 44.6808C129.937 45.2525 130.762 45.5383 131.829 45.5383C132.877 45.5383 133.691 45.2477 134.273 44.6665C134.863 44.0758 135.159 43.2564 135.159 42.2084V36.4059C135.159 36.101 135.287 35.9486 135.545 35.9486C135.792 35.9486 135.916 36.101 135.916 36.4059V42.1655C135.916 42.9944 135.749 43.7137 135.416 44.3235C135.082 44.9333 134.601 45.4049 133.972 45.7384C133.353 46.0719 132.62 46.2386 131.772 46.2386ZM142.149 46.2386C141.902 46.2386 141.778 46.0862 141.778 45.7813V36.7632H138.305C138.019 36.7441 137.876 36.6346 137.876 36.4345C137.876 36.3106 137.909 36.2249 137.976 36.1772C138.043 36.1201 138.152 36.0915 138.305 36.0915H146.008C146.161 36.0915 146.27 36.1201 146.337 36.1772C146.404 36.2249 146.437 36.3106 146.437 36.4345C146.437 36.6536 146.294 36.7632 146.008 36.7632H142.535V45.7813C142.535 46.0862 142.407 46.2386 142.149 46.2386ZM152.428 46.2386C151.17 46.2386 150.184 45.8813 149.469 45.1667C148.755 44.4426 148.397 43.4422 148.397 42.1655V36.4059C148.397 36.101 148.521 35.9486 148.769 35.9486C149.026 35.9486 149.155 36.101 149.155 36.4059V42.2084C149.155 43.2755 149.441 44.0996 150.012 44.6808C150.593 45.2525 151.418 45.5383 152.485 45.5383C153.533 45.5383 154.347 45.2477 154.929 44.6665C155.519 44.0758 155.815 43.2564 155.815 42.2084V36.4059C155.815 36.101 155.943 35.9486 156.201 35.9486C156.448 35.9486 156.572 36.101 156.572 36.4059V42.1655C156.572 42.9944 156.405 43.7137 156.072 44.3235C155.738 44.9333 155.257 45.4049 154.628 45.7384C154.009 46.0719 153.276 46.2386 152.428 46.2386ZM159.032 37.6636C159.032 37.2062 159.17 36.8299 159.447 36.5345C159.723 36.2392 160.138 36.0915 160.69 36.0915H163.148C164.492 36.0915 165.478 36.363 166.107 36.9061C166.745 37.4397 167.064 38.2257 167.064 39.2643C167.064 40.2456 166.726 40.9888 166.05 41.4938C165.373 41.9987 164.363 42.2512 163.02 42.2512L166.121 45.6098C166.226 45.7146 166.278 45.8194 166.278 45.9242C166.278 46.01 166.24 46.0862 166.164 46.1529C166.097 46.21 166.026 46.2386 165.95 46.2386C165.835 46.2386 165.707 46.1624 165.564 46.01L162.091 42.2512H159.79V45.7813C159.79 46.0862 159.661 46.2386 159.404 46.2386C159.156 46.2386 159.032 46.0862 159.032 45.7813V37.6636ZM163.191 41.5795C164.087 41.5795 164.825 41.408 165.406 41.065C165.997 40.722 166.293 40.1218 166.293 39.2643C166.293 38.3496 166.031 37.7065 165.506 37.3349C164.992 36.9538 164.23 36.7632 163.22 36.7632H160.604C160.357 36.7632 160.157 36.8442 160.004 37.0062C159.861 37.1586 159.79 37.3635 159.79 37.6207V41.5795H163.191ZM173.433 46.2386C172.527 46.2386 171.694 46.029 170.932 45.6098C170.179 45.1906 169.574 44.5903 169.116 43.809C168.669 43.0277 168.445 42.1226 168.445 41.0936C168.445 40.0646 168.669 39.1595 169.116 38.3782C169.574 37.5969 170.179 36.9966 170.932 36.5774C171.694 36.1582 172.527 35.9486 173.433 35.9486C174.338 35.9486 175.167 36.1582 175.919 36.5774C176.682 36.9966 177.287 37.5969 177.734 38.3782C178.192 39.1595 178.42 40.0646 178.42 41.0936C178.42 42.1226 178.192 43.0277 177.734 43.809C177.287 44.5903 176.682 45.1906 175.919 45.6098C175.167 46.029 174.338 46.2386 173.433 46.2386ZM173.433 45.5383C174.223 45.5383 174.938 45.3668 175.576 45.0238C176.215 44.6808 176.72 44.1758 177.091 43.5089C177.472 42.8324 177.663 42.0273 177.663 41.0936C177.663 40.1599 177.472 39.3595 177.091 38.6926C176.72 38.0161 176.215 37.5064 175.576 37.1634C174.938 36.8204 174.223 36.6489 173.433 36.6489C172.642 36.6489 171.927 36.8204 171.289 37.1634C170.65 37.5064 170.141 38.0161 169.76 38.6926C169.388 39.3595 169.202 40.1599 169.202 41.0936C169.202 42.0273 169.388 42.8324 169.76 43.5089C170.141 44.1758 170.65 44.6808 171.289 45.0238C171.927 45.3668 172.642 45.5383 173.433 45.5383ZM186.008 46.0957C185.484 46.0957 185.074 45.9575 184.779 45.6812C184.493 45.4049 184.35 45.0191 184.35 44.5236V37.6636C184.35 37.1681 184.493 36.7823 184.779 36.506C185.074 36.2296 185.484 36.0915 186.008 36.0915H190.438C190.591 36.0915 190.7 36.1201 190.767 36.1772C190.834 36.2249 190.867 36.3106 190.867 36.4345C190.867 36.6536 190.724 36.7632 190.438 36.7632H185.922C185.674 36.7632 185.474 36.8442 185.322 37.0062C185.179 37.1586 185.107 37.3635 185.107 37.6207V40.6506H189.352C189.504 40.6506 189.614 40.6791 189.681 40.7363C189.747 40.7839 189.781 40.8697 189.781 40.9936C189.781 41.2127 189.638 41.3223 189.352 41.3223H185.107V44.5665C185.107 44.8237 185.179 45.0334 185.322 45.1953C185.474 45.3478 185.674 45.424 185.922 45.424H190.753C190.905 45.424 191.015 45.4526 191.081 45.5097C191.148 45.5574 191.181 45.6431 191.181 45.767C191.181 45.9861 191.038 46.0957 190.753 46.0957H186.008ZM187.723 34.7481C187.627 34.71 187.58 34.6385 187.58 34.5337C187.58 34.4765 187.594 34.4194 187.623 34.3622L188.537 32.3756C188.642 32.147 188.761 32.0326 188.895 32.0326C188.961 32.0326 189.028 32.0517 189.095 32.0898C189.238 32.1565 189.309 32.247 189.309 32.3614C189.309 32.428 189.281 32.5138 189.223 32.6186L188.123 34.5766C188.047 34.71 187.951 34.7767 187.837 34.7767L187.723 34.7481ZM197.478 46.2386C197.23 46.2386 197.106 46.0862 197.106 45.7813V39.9646C197.106 38.6974 197.459 37.7112 198.164 37.0062C198.869 36.3011 199.846 35.9486 201.094 35.9486C202.342 35.9486 203.319 36.3059 204.024 37.0205C204.729 37.7255 205.081 38.7069 205.081 39.9646V45.7813C205.081 46.0862 204.957 46.2386 204.71 46.2386C204.452 46.2386 204.324 46.0862 204.324 45.7813V42.2369H197.864V45.7813C197.864 46.0862 197.735 46.2386 197.478 46.2386ZM204.324 41.5652V39.9217C204.324 38.8736 204.043 38.0685 203.481 37.5064C202.928 36.9347 202.132 36.6489 201.094 36.6489C200.055 36.6489 199.255 36.9347 198.693 37.5064C198.14 38.0685 197.864 38.8736 197.864 39.9217V41.5652H204.324ZM212.091 46.2386C211.109 46.2386 210.247 46.029 209.504 45.6098C208.77 45.181 208.199 44.5808 207.789 43.809C207.389 43.0277 207.189 42.1274 207.189 41.1079C207.189 40.0884 207.394 39.188 207.803 38.4068C208.213 37.6255 208.789 37.0205 209.533 36.5917C210.276 36.163 211.133 35.9486 212.105 35.9486C212.905 35.9486 213.639 36.0867 214.306 36.363C214.973 36.6298 215.502 37.0014 215.892 37.4778C215.959 37.554 215.992 37.6398 215.992 37.735C215.992 37.8494 215.95 37.9351 215.864 37.9923C215.807 38.0399 215.726 38.0638 215.621 38.0638C215.478 38.0638 215.373 38.0161 215.306 37.9208C215.011 37.5207 214.578 37.211 214.006 36.9919C213.444 36.7632 212.81 36.6489 212.105 36.6489C211.257 36.6489 210.519 36.8299 209.89 37.192C209.271 37.5445 208.794 38.059 208.461 38.7355C208.127 39.4024 207.961 40.1932 207.961 41.1079C207.961 42.0226 208.122 42.8134 208.446 43.4803C208.78 44.1473 209.256 44.657 209.876 45.0095C210.504 45.3621 211.243 45.5383 212.091 45.5383C212.758 45.5383 213.353 45.4288 213.877 45.2096C214.411 44.9809 214.83 44.6665 215.135 44.2664C215.44 43.8662 215.592 43.4184 215.592 42.9229V42.3799C215.592 42.0845 215.535 41.8796 215.421 41.7653C215.306 41.6414 215.106 41.5795 214.821 41.5795H212.534C212.248 41.5795 212.105 41.4699 212.105 41.2508C212.105 41.1269 212.138 41.0412 212.205 40.9936C212.272 40.9364 212.381 40.9078 212.534 40.9078H214.735C215.278 40.9078 215.683 41.0269 215.95 41.2651C216.216 41.5033 216.35 41.8701 216.35 42.3656V42.9086C216.35 43.5184 216.159 44.0806 215.778 44.5951C215.407 45.1 214.892 45.5002 214.235 45.7956C213.587 46.0909 212.872 46.2386 212.091 46.2386ZM223.077 46.2386C222.172 46.2386 221.338 46.029 220.576 45.6098C219.823 45.1906 219.218 44.5903 218.761 43.809C218.313 43.0277 218.089 42.1226 218.089 41.0936C218.089 40.0646 218.313 39.1595 218.761 38.3782C219.218 37.5969 219.823 36.9966 220.576 36.5774C221.338 36.1582 222.172 35.9486 223.077 35.9486C223.982 35.9486 224.811 36.1582 225.564 36.5774C226.326 36.9966 226.931 37.5969 227.379 38.3782C227.836 39.1595 228.065 40.0646 228.065 41.0936C228.065 42.1226 227.836 43.0277 227.379 43.809C226.931 44.5903 226.326 45.1906 225.564 45.6098C224.811 46.029 223.982 46.2386 223.077 46.2386ZM223.077 45.5383C223.868 45.5383 224.582 45.3668 225.221 45.0238C225.859 44.6808 226.364 44.1758 226.735 43.5089C227.117 42.8324 227.307 42.0273 227.307 41.0936C227.307 40.1599 227.117 39.3595 226.735 38.6926C226.364 38.0161 225.859 37.5064 225.221 37.1634C224.582 36.8204 223.868 36.6489 223.077 36.6489C222.286 36.6489 221.571 36.8204 220.933 37.1634C220.295 37.5064 219.785 38.0161 219.404 38.6926C219.032 39.3595 218.846 40.1599 218.846 41.0936C218.846 42.0273 219.032 42.8324 219.404 43.5089C219.785 44.1758 220.295 44.6808 220.933 45.0238C221.571 45.3668 222.286 45.5383 223.077 45.5383ZM230.17 37.6636C230.17 37.2062 230.308 36.8299 230.584 36.5345C230.861 36.2392 231.275 36.0915 231.828 36.0915H234.286C235.629 36.0915 236.616 36.363 237.244 36.9061C237.883 37.4397 238.202 38.2257 238.202 39.2643C238.202 40.2456 237.864 40.9888 237.187 41.4938C236.511 41.9987 235.501 42.2512 234.157 42.2512L237.259 45.6098C237.363 45.7146 237.416 45.8194 237.416 45.9242C237.416 46.01 237.378 46.0862 237.302 46.1529C237.235 46.21 237.163 46.2386 237.087 46.2386C236.973 46.2386 236.844 46.1624 236.701 46.01L233.228 42.2512H230.927V45.7813C230.927 46.0862 230.799 46.2386 230.542 46.2386C230.294 46.2386 230.17 46.0862 230.17 45.7813V37.6636ZM234.329 41.5795C235.224 41.5795 235.963 41.408 236.544 41.065C237.135 40.722 237.43 40.1218 237.43 39.2643C237.43 38.3496 237.168 37.7065 236.644 37.3349C236.13 36.9538 235.367 36.7632 234.357 36.7632H231.742C231.494 36.7632 231.294 36.8442 231.142 37.0062C230.999 37.1586 230.927 37.3635 230.927 37.6207V41.5795H234.329ZM240.674 46.2386C240.426 46.2386 240.303 46.0862 240.303 45.7813V39.9646C240.303 38.6974 240.655 37.7112 241.36 37.0062C242.065 36.3011 243.042 35.9486 244.29 35.9486C245.538 35.9486 246.515 36.3059 247.22 37.0205C247.925 37.7255 248.277 38.7069 248.277 39.9646V45.7813C248.277 46.0862 248.153 46.2386 247.906 46.2386C247.649 46.2386 247.52 46.0862 247.52 45.7813V42.2369H241.06V45.7813C241.06 46.0862 240.931 46.2386 240.674 46.2386ZM247.52 41.5652V39.9217C247.52 38.8736 247.239 38.0685 246.677 37.5064C246.124 36.9347 245.328 36.6489 244.29 36.6489C243.251 36.6489 242.451 36.9347 241.889 37.5064C241.336 38.0685 241.06 38.8736 241.06 39.9217V41.5652H247.52Z" fill="#F9F9F9"/>
<defs>
<radialGradient id="paint0_angular_744_375" cx="0" cy="0" r="1" gradientUnits="userSpaceOnUse" gradientTransform="translate(62.1323 14.3431) rotate(-125.383) scale(17.1863 27.1247)">
<stop stop-color="#0837DE"/>
<stop offset="1" stop-color="#001355"/>
</radialGradient>
<linearGradient id="paint1_linear_744_375" x1="6.12207" y1="0.0668945" x2="6.12207" y2="48.7065" gradientUnits="userSpaceOnUse">
<stop stop-color="#0837DE"/>
<stop offset="1" stop-color="#011456"/>
</linearGradient>
</defs>
</svg>
